<svg width="534" height="239" viewBox="0 0 534 239" fill="none" xmlns="http://www.w3.org/2000/svg">
<g clip-path="url(#clip0_1_5)">
<path d="M-9.93908e-07 165.982C-9.93908e-07 148.964 13.0212 136.785 30.5418 136.785C40.2676 136.785 48.3843 140.334 53.6889 146.787L45.3299 154.529C41.5525 150.173 36.8107 147.915 31.1842 147.915C20.6557 147.915 13.1802 155.336 13.1802 165.982C13.1802 176.628 20.6557 184.048 31.1842 184.048C36.8107 184.048 41.5525 181.789 45.3299 177.354L53.6889 185.098C48.3843 191.63 40.2664 195.179 30.461 195.179C13.0199 195.179 -0.00124359 182.999 -0.00124359 165.982H-9.93908e-07Z" fill="#3C2755"/>
<path d="M98.3764 182.112H72.2558L67.273 194.21H53.9312L79.0081 137.753H91.8677L117.025 194.21H103.362L98.3789 182.112H98.3764ZM94.2771 172.192L85.3553 150.576L76.4334 172.192H94.2771Z" fill="#3C2755"/>
<path d="M131.731 148.399H113.727V137.753H162.755V148.399H144.751V194.21H131.73L131.731 148.399Z" fill="#3C2755"/>
<path d="M203.989 182.112H177.868L172.885 194.21H159.543L184.62 137.753H197.48L222.637 194.21H208.974L203.991 182.112H203.989ZM199.889 172.192L190.967 150.576L182.045 172.192H199.889Z" fill="#3C2755"/>
<path d="M273.913 169.37V137.754H286.934V168.887C286.934 179.615 291.595 184.049 299.472 184.049C307.43 184.049 312.01 179.613 312.01 168.887V137.754H324.87V169.37C324.87 185.984 315.386 195.179 299.391 195.179C283.397 195.179 273.913 185.984 273.913 169.37Z" fill="#3C2755"/>
<path d="M388.928 194.21L388.847 160.335L372.29 188.241H366.422L349.945 161.06V194.209H337.728V137.751H348.498L369.556 172.836L390.292 137.751H400.982L401.143 194.209H388.926L388.928 194.21Z" fill="#3C2755"/>
<path d="M466.085 178.805C466.085 188.565 458.369 194.21 443.58 194.21H414.484V137.753H441.972C456.037 137.753 463.271 143.641 463.271 152.432C463.271 158.078 460.379 162.433 455.797 164.852C462.066 166.87 466.085 171.709 466.085 178.805ZM427.425 147.592V160.899H440.365C446.715 160.899 450.171 158.641 450.171 154.206C450.171 149.771 446.715 147.592 440.365 147.592H427.425ZM452.984 177.434C452.984 172.676 449.367 170.417 442.616 170.417H427.425V184.369H442.616C449.367 184.369 452.984 182.272 452.984 177.434Z" fill="#3C2755"/>
<path d="M472.433 165.982C472.433 149.206 485.454 136.785 503.216 136.785C520.978 136.785 533.999 149.125 533.999 165.982C533.999 182.839 520.898 195.179 503.216 195.179C485.534 195.179 472.433 182.758 472.433 165.982ZM520.817 165.982C520.817 155.255 513.262 147.915 503.216 147.915C493.17 147.915 485.613 155.255 485.613 165.982C485.613 176.709 493.168 184.048 503.216 184.048C513.264 184.048 520.817 176.708 520.817 165.982Z" fill="#3C2755"/>
<path d="M235.057 223.198V238.797H232.509V223.402C232.509 217.367 229.4 214.196 224.201 214.196C218.186 214.196 214.466 218.236 214.466 224.578V238.796H211.918V223.401C211.918 217.366 208.809 214.195 203.61 214.195C197.595 214.195 193.875 218.235 193.875 224.577V238.794H191.326V212.097H193.773V217.826C195.507 214.092 199.125 211.893 203.966 211.893C208.756 211.893 212.274 214.092 213.701 218.337C215.434 214.45 219.307 211.893 224.454 211.893C230.876 211.893 235.055 215.728 235.055 223.195L235.057 223.198Z" fill="#E29D23"/>
<path d="M268.092 226.061H245.208C245.463 232.402 250.101 236.698 256.471 236.698C259.835 236.698 262.944 235.471 264.983 232.965L266.46 234.653C264.115 237.517 260.446 239 256.42 239C248.368 239 242.71 233.374 242.71 225.447C242.71 217.52 248.164 211.894 255.452 211.894C262.74 211.894 268.143 217.418 268.143 225.345C268.143 225.549 268.092 225.805 268.092 226.061ZM245.259 224.065H265.645C265.288 218.286 261.109 214.144 255.452 214.144C249.794 214.144 245.666 218.235 245.259 224.065Z" fill="#E29D23"/>
<path d="M299.696 200.848V238.797H297.198V232.506C295.108 236.648 291.082 239.001 286.292 239.001C278.8 239.001 273.143 233.426 273.143 225.448C273.143 217.419 278.8 211.895 286.292 211.895C291.031 211.895 295.008 214.248 297.147 218.288V200.849H299.696V200.848ZM297.147 225.448C297.147 218.749 292.561 214.197 286.445 214.197C280.329 214.197 275.742 218.749 275.742 225.448C275.742 232.148 280.329 236.699 286.445 236.699C292.561 236.699 297.147 232.148 297.147 225.448Z" fill="#E29D23"/>
<path d="M309.639 203.558C309.639 202.434 310.556 201.461 311.729 201.461C312.902 201.461 313.819 202.381 313.819 203.507C313.819 204.683 312.902 205.605 311.729 205.605C310.556 205.605 309.639 204.684 309.639 203.558ZM310.454 212.1H313.003V238.797H310.454V212.1Z" fill="#E29D23"/>
<path d="M342.972 221.867V238.795H340.525V234.04C338.843 237.108 335.581 239.001 330.943 239.001C324.98 239.001 321.362 235.933 321.362 231.381C321.362 227.341 323.91 223.915 331.3 223.915H340.423V221.766C340.423 216.805 337.722 214.146 332.524 214.146C328.855 214.146 325.542 215.526 323.35 217.522L322.076 215.68C324.727 213.327 328.6 211.895 332.728 211.895C339.302 211.895 342.972 215.271 342.972 221.868V221.867ZM340.423 230.92V225.907H331.351C325.846 225.907 323.91 228.209 323.91 231.278C323.91 234.755 326.612 236.904 331.3 236.904C335.785 236.904 338.894 234.755 340.423 230.92Z" fill="#E29D23"/>
<path d="M236.966 94.878L189.065 84.6058L253.584 10.7324C226.759 11.887 203.586 27.1271 191.2 49.2751C189.545 48.9858 187.833 48.8175 186.078 48.8175C170.001 48.8175 156.957 61.828 156.791 77.9284C132.037 80.0694 112.604 100.896 112.604 126.306H226.052L236.966 94.878Z" fill="#E5DBEE"/>
<path d="M272.622 55.7654L317.829 66.2247L265.357 126.305H401.109C401.109 100.896 381.677 80.0682 356.922 77.9272C356.767 61.828 343.712 48.8162 327.636 48.8162C325.88 48.8162 324.18 48.9833 322.514 49.2739C314.096 34.2221 300.695 22.36 284.555 15.9396L272.621 55.7654H272.622Z" fill="#E5DBEE"/>
<path d="M251.601 86.6158L229.39 150.571L297.227 72.8996L251.601 86.6158Z" fill="#FBB725"/>
<path d="M228.578 137.753H219.34V148.399H224.882L228.578 137.753Z" fill="#1F122F"/>
<path d="M237.344 149.032V194.21H250.363V148.399H268.368V137.753H247.195L237.344 149.032Z" fill="#1F122F"/>
<path d="M277.73 0L209.895 77.6716L297.227 72.8996L258.566 63.9553L277.73 0Z" fill="#FBB725"/>
</g>
<defs>
<clipPath id="clip0_1_5">
<rect width="534" height="239" fill="white"/>
</clipPath>
</defs>
</svg>
